<svg width="780" height="438" viewBox="0 0 780 438" fill="none" xmlns="http://www.w3.org/2000/svg">
<g clip-path="url(#clip0)">
<rect width="780" height="438" fill="#E9F0FE"/>
<mask id="mask0" mask-type="alpha" maskUnits="userSpaceOnUse" x="-25" y="-14" width="815" height="524">
<rect x="-25" y="-13.3975" width="815" height="522.436" fill="#C4C4C4"/>
</mask>
<g mask="url(#mask0)">
<path opacity="0.2" d="M32.1325 -136.25H30.2161V632.251H32.1325V-136.25Z" fill="white"/>
<path opacity="0.2" d="M70.5581 -136.25H68.6416V632.251H70.5581V-136.25Z" fill="white"/>
<path opacity="0.2" d="M108.983 -136.25H107.066V632.251H108.983V-136.25Z" fill="white"/>
<path opacity="0.2" d="M147.408 -136.25H145.491V632.251H147.408V-136.25Z" fill="white"/>
<path opacity="0.5" d="M185.833 -136.25H183.916V632.251H185.833V-136.25Z" fill="white"/>
<path opacity="0.2" d="M224.258 -136.25H222.342V632.251H224.258V-136.25Z" fill="white"/>
<path opacity="0.2" d="M262.683 -136.25H260.767V632.251H262.683V-136.25Z" fill="white"/>
<path opacity="0.2" d="M301.108 -136.25H299.191V632.251H301.108V-136.25Z" fill="white"/>
<path opacity="0.2" d="M339.533 -136.25H337.616V632.251H339.533V-136.25Z" fill="white"/>
<path opacity="0.5" d="M377.958 -136.25H376.042V632.251H377.958V-136.25Z" fill="white"/>
<path opacity="0.2" d="M416.384 -136.25H414.467V632.251H416.384V-136.25Z" fill="white"/>
<path opacity="0.2" d="M454.808 -136.25H452.892V632.251H454.808V-136.25Z" fill="white"/>
<path opacity="0.2" d="M493.233 -136.25H491.317V632.251H493.233V-136.25Z" fill="white"/>
<path opacity="0.2" d="M531.658 -136.25H529.742V632.251H531.658V-136.25Z" fill="white"/>
<path opacity="0.5" d="M570.083 -136.25H568.167V632.251H570.083V-136.25Z" fill="white"/>
<path opacity="0.2" d="M608.508 -136.25H606.592V632.251H608.508V-136.25Z" fill="white"/>
<path opacity="0.2" d="M646.934 -136.25H645.017V632.251H646.934V-136.25Z" fill="white"/>
<path opacity="0.2" d="M685.358 -136.25H683.442V632.251H685.358V-136.25Z" fill="white"/>
<path opacity="0.2" d="M723.784 -136.25H721.867V632.251H723.784V-136.25Z" fill="white"/>
<path opacity="0.5" d="M761.251 -135.292H759.334V631.293H761.251V-135.292Z" fill="white"/>
<path opacity="0.2" d="M761.25 16.4919H-7.25073V18.4084H761.25V16.4919Z" fill="white"/>
<path opacity="0.5" d="M761.25 54.9167H-7.25073V56.8332H761.25V54.9167Z" fill="white"/>
<path opacity="0.2" d="M761.25 93.3416H-7.25073V95.258H761.25V93.3416Z" fill="white"/>
<path opacity="0.2" d="M761.25 131.767H-7.25073V133.684H761.25V131.767Z" fill="white"/>
<path opacity="0.2" d="M761.25 170.192H-7.25073V172.108H761.25V170.192Z" fill="white"/>
<path opacity="0.2" d="M761.25 208.616H-7.25073V210.533H761.25V208.616Z" fill="white"/>
<path opacity="0.5" d="M761.25 247.042H-7.25073V248.958H761.25V247.042Z" fill="white"/>
<path opacity="0.2" d="M761.25 285.467H-7.25073V287.384H761.25V285.467Z" fill="white"/>
<path opacity="0.2" d="M761.25 323.893H-7.25073V325.809H761.25V323.893Z" fill="white"/>
<path opacity="0.2" d="M761.25 362.317H-7.25073V364.233H761.25V362.317Z" fill="white"/>
<path opacity="0.2" d="M761.25 400.742H-7.25073V402.659H761.25V400.742Z" fill="white"/>
<path d="M0.415231 55.3958H-13V57.3122H0.415231V55.3958Z" fill="white"/>
<path d="M761.251 49.6467H759.334V63.062H761.251V49.6467Z" fill="white"/>
<path d="M767 55.3958H753.585V57.3122H767V55.3958Z" fill="white"/>
<path d="M0.415231 247.041H-13V248.957H0.415231V247.041Z" fill="white"/>
<path d="M761.25 241.292H759.334V254.707H761.25V241.292Z" fill="white"/>
<path d="M767 247.041H753.584V248.957H767V247.041Z" fill="white"/>
<path d="M761.25 432.938H759.334V446.354H761.25V432.938Z" fill="white"/>
<path d="M186.312 49.6467H184.395V63.062H186.312V49.6467Z" fill="white"/>
<path d="M192.061 55.3958H178.646V57.3122H192.061V55.3958Z" fill="white"/>
<path d="M186.312 241.292H184.395V254.707H186.312V241.292Z" fill="white"/>
<path d="M192.061 247.041H178.646V248.957H192.061V247.041Z" fill="white"/>
<path d="M186.312 432.938H184.395V446.353H186.312V432.938Z" fill="white"/>
<path d="M377.958 49.6467H376.041V63.062H377.958V49.6467Z" fill="white"/>
<path d="M383.707 55.3958H370.292V57.3122H383.707V55.3958Z" fill="white"/>
<path d="M377.958 241.292H376.041V254.707H377.958V241.292Z" fill="white"/>
<path d="M383.707 247.041H370.292V248.957H383.707V247.041Z" fill="white"/>
<path d="M377.958 432.938H376.041V446.354H377.958V432.938Z" fill="white"/>
<path d="M569.604 49.6467H567.688V63.062H569.604V49.6467Z" fill="white"/>
<path d="M575.353 55.3958H561.938V57.3122H575.353V55.3958Z" fill="white"/>
<path d="M569.604 241.292H567.688V254.707H569.604V241.292Z" fill="white"/>
<path d="M575.354 247.041H561.938V248.957H575.354V247.041Z" fill="white"/>
<path d="M569.604 432.938H567.688V446.354H569.604V432.938Z" fill="white"/>
<path d="M90.4887 151.219H88.5723V153.135H90.4887V151.219Z" fill="white"/>
<path d="M282.135 151.219H280.219V153.135H282.135V151.219Z" fill="white"/>
<path d="M473.781 151.219H471.865V153.135H473.781V151.219Z" fill="white"/>
<path d="M665.427 151.219H663.511V153.135H665.427V151.219Z" fill="white"/>
<path d="M90.4887 342.865H88.5723V344.782H90.4887V342.865Z" fill="white"/>
<path d="M282.135 342.865H280.219V344.782H282.135V342.865Z" fill="white"/>
<path d="M473.781 342.865H471.865V344.782H473.781V342.865Z" fill="white"/>
<path d="M665.427 342.865H663.511V344.782H665.427V342.865Z" fill="white"/>
</g>
<circle cx="199.312" cy="187.314" r="94.7124" fill="#102859"/>
<g filter="url(#filter0_d)">
<path d="M321.375 188.688C321.375 255.342 267.342 309.376 200.688 309.376C134.034 309.376 80 255.342 80 188.688C80 122.034 134.034 68.0005 200.688 68.0005C267.342 68.0005 321.375 122.034 321.375 188.688ZM109.436 188.688C109.436 239.085 150.291 279.94 200.688 279.94C251.085 279.94 291.939 239.085 291.939 188.688C291.939 138.291 251.085 97.4366 200.688 97.4366C150.291 97.4366 109.436 138.291 109.436 188.688Z" fill="url(#paint0_linear)"/>
</g>
<g filter="url(#filter1_d)">
<path fill-rule="evenodd" clip-rule="evenodd" d="M443.409 309.44H198.005V279.875H443.409L459.466 294.658L443.409 309.44Z" fill="url(#paint1_linear)"/>
</g>
<g style="mix-blend-mode:color-dodge">
<path d="M418.039 284.487L429.328 294.496L418.039 304.504V284.487Z" fill="url(#paint2_linear)"/>
<path d="M394.416 284.487L405.705 294.496L394.416 304.504V284.487Z" fill="url(#paint3_linear)"/>
<path d="M370.792 284.487L382.082 294.496L370.792 304.504V284.487Z" fill="url(#paint4_linear)"/>
<path d="M347.169 284.487L358.458 294.496L347.169 304.504V284.487Z" fill="url(#paint5_linear)"/>
<path d="M323.546 284.487L334.835 294.496L323.546 304.504V284.487Z" fill="url(#paint6_linear)"/>
</g>
<path d="M245.396 151.17V149.249H245.409V139.73V134.131C245.409 128.857 242.03 124.581 237.861 124.581H236.825C232.657 124.581 225.819 128.857 225.819 134.131H222.949H192.935V167.906H172.004V151.17C172.004 156.444 176.73 160.72 182.56 160.72H253.214C247.383 160.719 245.396 156.444 245.396 151.17Z" fill="#1A69A8"/>
<path opacity="0.31" d="M236.912 151.17V149.249H236.925V139.73V134.131C236.926 128.857 233.558 124.581 229.404 124.581H228.372C224.218 124.581 217.402 128.857 217.402 134.131H214.542H192.863V167.906H172.004V151.17C172.004 156.444 176.714 160.72 182.524 160.72H244.703C238.893 160.719 236.912 156.444 236.912 151.17Z" fill="#3AA9FF"/>
<path d="M158.169 240.423L227.764 240.415C228.807 240.415 229.653 239.603 229.653 238.602V191.341V158.577V134.13C229.653 128.857 232.862 124.581 238.692 124.581H166.818C160.988 124.581 156.262 128.857 156.262 134.131V158.578V191.341V238.602C156.265 239.609 157.118 240.423 158.169 240.423Z" fill="#FAFAFA"/>
<path fill-rule="evenodd" clip-rule="evenodd" d="M163.642 149.181C163.642 147.823 164.744 146.721 166.102 146.721H185.783C187.141 146.721 188.243 147.823 188.243 149.181C188.243 150.54 187.141 151.641 185.783 151.641H166.102C164.744 151.641 163.642 150.54 163.642 149.181ZM163.642 163.942C163.642 162.583 164.743 161.482 166.102 161.482H215.303C216.662 161.482 217.763 162.583 217.763 163.942C217.763 165.3 216.662 166.402 215.303 166.402H166.102C164.743 166.402 163.642 165.3 163.642 163.942ZM166.102 171.321C164.743 171.321 163.642 172.423 163.642 173.781C163.642 175.14 164.743 176.242 166.102 176.242H215.303C216.662 176.242 217.763 175.14 217.763 173.781C217.763 172.423 216.662 171.321 215.303 171.321H166.102ZM163.642 183.623C163.642 182.264 164.743 181.163 166.102 181.163H215.303C216.662 181.163 217.763 182.264 217.763 183.623C217.763 184.981 216.662 186.083 215.303 186.083H166.102C164.743 186.083 163.642 184.981 163.642 183.623ZM166.102 191.002C164.743 191.002 163.642 192.104 163.642 193.462C163.642 194.821 164.743 195.922 166.102 195.922H215.303C216.662 195.922 217.763 194.821 217.763 193.462C217.763 192.104 216.662 191.002 215.303 191.002H166.102ZM163.642 203.303C163.642 201.945 164.743 200.843 166.102 200.843H215.303C216.662 200.843 217.763 201.945 217.763 203.303C217.763 204.662 216.662 205.763 215.303 205.763H166.102C164.743 205.763 163.642 204.662 163.642 203.303ZM166.102 210.683C164.743 210.683 163.642 211.784 163.642 213.143C163.642 214.501 164.743 215.603 166.102 215.603H195.623C196.982 215.603 198.083 214.501 198.083 213.143C198.083 211.784 196.982 210.683 195.623 210.683H166.102Z" fill="#B0BECB"/>
<path d="M228.841 252.901C240.531 252.901 250.009 242.899 250.009 230.561C250.009 218.223 240.531 208.221 228.841 208.221C217.15 208.221 207.672 218.223 207.672 230.561C207.672 242.899 217.15 252.901 228.841 252.901Z" fill="#86B026"/>
<path d="M226.631 252.901C238.322 252.901 247.799 242.899 247.799 230.561C247.799 218.223 238.322 208.221 226.631 208.221C214.94 208.221 205.463 218.223 205.463 230.561C205.463 242.899 214.94 252.901 226.631 252.901Z" fill="#A4D72E"/>
<path d="M234.245 240.024C232.96 241.296 231.236 242.118 229.069 242.489L228.999 246.409L224.09 246.321L224.158 242.571C221.14 242.244 218.689 241.382 216.804 239.985L218.895 235.521C220.692 236.758 222.633 237.497 224.721 237.739L224.812 232.66C223.296 232.247 222.014 231.787 220.966 231.279C219.918 230.772 219.039 230.034 218.329 229.066C217.618 228.099 217.278 226.843 217.305 225.297C217.338 223.479 218.025 221.911 219.366 220.594C220.707 219.278 222.45 218.422 224.594 218.028L224.663 214.142L229.572 214.23L229.504 218.047C230.796 218.252 232.001 218.575 233.118 219.016C234.235 219.457 235.14 219.967 235.836 220.547L233.744 225.045C232.148 223.994 230.57 223.295 229.008 222.949L228.917 228.063C230.41 228.476 231.663 228.925 232.678 229.408C233.693 229.892 234.543 230.613 235.232 231.569C235.919 232.525 236.25 233.775 236.222 235.32C236.188 237.183 235.529 238.751 234.245 240.024ZM224.916 226.798L224.982 223.083C224.57 223.258 224.247 223.512 224.014 223.849C223.78 224.186 223.66 224.57 223.652 225.002C223.639 225.729 224.059 226.328 224.916 226.798ZM229.875 235.514C229.886 234.878 229.531 234.371 228.81 233.994L228.751 237.369C229.485 236.973 229.86 236.354 229.875 235.514Z" fill="white"/>
<circle cx="566.614" cy="190.125" r="94.7124" transform="rotate(-180 566.614 190.125)" fill="#102859"/>
<path d="M444.615 188.69C444.615 122.036 498.649 68.0022 565.303 68.0022C631.957 68.0022 685.99 122.036 685.99 188.69C685.99 255.344 631.957 309.378 565.303 309.378C498.649 309.378 444.615 255.344 444.615 188.69ZM656.554 188.69C656.554 138.293 615.699 97.4384 565.303 97.4384C514.906 97.4384 474.051 138.293 474.051 188.69C474.051 239.087 514.906 279.942 565.303 279.942C615.699 279.942 656.554 239.087 656.554 188.69Z" fill="url(#paint7_linear)"/>
<path fill-rule="evenodd" clip-rule="evenodd" d="M322.518 68H567.922V97.5642H322.518L306.46 82.7821L322.518 68Z" fill="url(#paint8_linear)"/>
<g style="mix-blend-mode:color-dodge">
<path d="M347.888 92.9546L336.598 82.9459L347.888 72.9372V92.9546Z" fill="url(#paint9_linear)"/>
<path d="M371.511 92.9546L360.222 82.9459L371.511 72.9372V92.9546Z" fill="url(#paint10_linear)"/>
<path d="M395.134 92.9546L383.845 82.9459L395.134 72.9372V92.9546Z" fill="url(#paint11_linear)"/>
<path d="M418.758 92.9546L407.469 82.9459L418.758 72.9372V92.9546Z" fill="url(#paint12_linear)"/>
<path d="M442.381 92.9546L431.092 82.9459L442.381 72.9372V92.9546Z" fill="url(#paint13_linear)"/>
</g>
<path fill-rule="evenodd" clip-rule="evenodd" d="M457.018 135.102C464.153 120.649 474.096 107.83 486.134 97.3589H559.912C531.657 99.005 506.853 113.507 491.265 135.102H457.018Z" fill="url(#paint14_linear)" style="mix-blend-mode:multiply"/>
<path fill-rule="evenodd" clip-rule="evenodd" d="M308.696 242.038C301.561 256.491 291.619 269.31 279.58 279.781H205.824C234.07 278.129 258.865 263.628 274.45 242.038H308.696Z" fill="url(#paint15_linear)" style="mix-blend-mode:multiply"/>
<path d="M177.973 364.966C176.697 364.966 175.459 364.797 174.259 364.459C173.075 364.105 172.122 363.652 171.399 363.098L172.668 360.284C173.36 360.792 174.182 361.199 175.136 361.507C176.089 361.814 177.043 361.968 177.996 361.968C179.057 361.968 179.841 361.814 180.349 361.507C180.856 361.184 181.11 360.761 181.11 360.238C181.11 359.854 180.956 359.538 180.648 359.292C180.356 359.031 179.972 358.823 179.495 358.67C179.034 358.516 178.403 358.347 177.604 358.162C176.374 357.87 175.366 357.578 174.582 357.286C173.798 356.994 173.121 356.525 172.552 355.879C171.999 355.233 171.722 354.372 171.722 353.295C171.722 352.357 171.976 351.512 172.483 350.758C172.991 349.989 173.752 349.382 174.767 348.936C175.797 348.49 177.05 348.267 178.526 348.267C179.557 348.267 180.564 348.39 181.548 348.636C182.532 348.882 183.393 349.236 184.131 349.697L182.978 352.534C181.486 351.689 179.995 351.266 178.503 351.266C177.458 351.266 176.681 351.435 176.174 351.773C175.682 352.111 175.436 352.557 175.436 353.111C175.436 353.664 175.72 354.08 176.289 354.356C176.873 354.618 177.758 354.879 178.942 355.141C180.172 355.433 181.179 355.725 181.963 356.017C182.747 356.309 183.416 356.771 183.97 357.401C184.539 358.031 184.823 358.885 184.823 359.961C184.823 360.884 184.562 361.73 184.039 362.498C183.532 363.252 182.763 363.852 181.733 364.298C180.702 364.744 179.449 364.966 177.973 364.966ZM195.657 364.966C193.981 364.966 192.466 364.605 191.113 363.882C189.775 363.16 188.722 362.168 187.953 360.907C187.2 359.631 186.823 358.201 186.823 356.617C186.823 355.033 187.2 353.611 187.953 352.35C188.722 351.073 189.775 350.074 191.113 349.351C192.466 348.629 193.981 348.267 195.657 348.267C197.333 348.267 198.84 348.629 200.178 349.351C201.516 350.074 202.569 351.073 203.338 352.35C204.107 353.611 204.491 355.033 204.491 356.617C204.491 358.201 204.107 359.631 203.338 360.907C202.569 362.168 201.516 363.16 200.178 363.882C198.84 364.605 197.333 364.966 195.657 364.966ZM195.657 361.783C196.61 361.783 197.471 361.568 198.24 361.138C199.009 360.692 199.609 360.077 200.039 359.292C200.485 358.508 200.708 357.616 200.708 356.617C200.708 355.617 200.485 354.725 200.039 353.941C199.609 353.157 199.009 352.55 198.24 352.119C197.471 351.673 196.61 351.45 195.657 351.45C194.704 351.45 193.842 351.673 193.074 352.119C192.305 352.55 191.697 353.157 191.251 353.941C190.821 354.725 190.606 355.617 190.606 356.617C190.606 357.616 190.821 358.508 191.251 359.292C191.697 360.077 192.305 360.692 193.074 361.138C193.842 361.568 194.704 361.783 195.657 361.783ZM215.487 364.966C213.842 364.966 212.351 364.613 211.013 363.905C209.69 363.183 208.645 362.191 207.876 360.93C207.122 359.654 206.746 358.216 206.746 356.617C206.746 355.018 207.122 353.588 207.876 352.327C208.645 351.05 209.69 350.059 211.013 349.351C212.351 348.629 213.85 348.267 215.51 348.267C216.91 348.267 218.171 348.513 219.293 349.005C220.431 349.497 221.384 350.205 222.153 351.127L219.755 353.342C218.663 352.081 217.31 351.45 215.695 351.45C214.696 351.45 213.804 351.673 213.019 352.119C212.235 352.55 211.62 353.157 211.174 353.941C210.744 354.725 210.528 355.617 210.528 356.617C210.528 357.616 210.744 358.508 211.174 359.292C211.62 360.077 212.235 360.692 213.019 361.138C213.804 361.568 214.696 361.783 215.695 361.783C217.31 361.783 218.663 361.145 219.755 359.869L222.153 362.083C221.384 363.021 220.431 363.736 219.293 364.228C218.155 364.72 216.887 364.966 215.487 364.966ZM230.576 348.544V364.69H226.839V351.542H223.61V348.544H230.576Z" fill="#666666"/>
<path d="M538.6 364.966C537.323 364.966 536.085 364.797 534.886 364.459C533.702 364.105 532.749 363.652 532.026 363.098L533.295 360.284C533.987 360.792 534.809 361.199 535.763 361.507C536.716 361.814 537.669 361.968 538.623 361.968C539.684 361.968 540.468 361.814 540.975 361.507C541.483 361.184 541.737 360.761 541.737 360.238C541.737 359.854 541.583 359.538 541.275 359.292C540.983 359.031 540.599 358.823 540.122 358.67C539.661 358.516 539.03 358.347 538.231 358.162C537 357.87 535.993 357.578 535.209 357.286C534.425 356.994 533.748 356.525 533.179 355.879C532.626 355.233 532.349 354.372 532.349 353.295C532.349 352.357 532.603 351.512 533.11 350.758C533.617 349.989 534.379 349.382 535.394 348.936C536.424 348.49 537.677 348.267 539.153 348.267C540.183 348.267 541.191 348.39 542.175 348.636C543.159 348.882 544.02 349.236 544.758 349.697L543.605 352.534C542.113 351.689 540.622 351.266 539.13 351.266C538.084 351.266 537.308 351.435 536.801 351.773C536.308 352.111 536.062 352.557 536.062 353.111C536.062 353.664 536.347 354.08 536.916 354.356C537.5 354.618 538.384 354.879 539.568 355.141C540.799 355.433 541.806 355.725 542.59 356.017C543.374 356.309 544.043 356.771 544.597 357.401C545.166 358.031 545.45 358.885 545.45 359.961C545.45 360.884 545.189 361.73 544.666 362.498C544.158 363.252 543.39 363.852 542.359 364.298C541.329 364.744 540.076 364.966 538.6 364.966ZM556.284 364.966C554.608 364.966 553.093 364.605 551.74 363.882C550.402 363.16 549.349 362.168 548.58 360.907C547.826 359.631 547.45 358.201 547.45 356.617C547.45 355.033 547.826 353.611 548.58 352.35C549.349 351.073 550.402 350.074 551.74 349.351C553.093 348.629 554.608 348.267 556.284 348.267C557.96 348.267 559.467 348.629 560.805 349.351C562.142 350.074 563.196 351.073 563.965 352.35C564.733 353.611 565.118 355.033 565.118 356.617C565.118 358.201 564.733 359.631 563.965 360.907C563.196 362.168 562.142 363.16 560.805 363.882C559.467 364.605 557.96 364.966 556.284 364.966ZM556.284 361.783C557.237 361.783 558.098 361.568 558.867 361.138C559.636 360.692 560.236 360.077 560.666 359.292C561.112 358.508 561.335 357.616 561.335 356.617C561.335 355.617 561.112 354.725 560.666 353.941C560.236 353.157 559.636 352.55 558.867 352.119C558.098 351.673 557.237 351.45 556.284 351.45C555.33 351.45 554.469 351.673 553.7 352.119C552.932 352.55 552.324 353.157 551.878 353.941C551.448 354.725 551.232 355.617 551.232 356.617C551.232 357.616 551.448 358.508 551.878 359.292C552.324 360.077 552.932 360.692 553.7 361.138C554.469 361.568 555.33 361.783 556.284 361.783ZM576.114 364.966C574.469 364.966 572.977 364.613 571.64 363.905C570.317 363.183 569.271 362.191 568.503 360.93C567.749 359.654 567.372 358.216 567.372 356.617C567.372 355.018 567.749 353.588 568.503 352.327C569.271 351.05 570.317 350.059 571.64 349.351C572.977 348.629 574.477 348.267 576.137 348.267C577.537 348.267 578.797 348.513 579.92 349.005C581.058 349.497 582.011 350.205 582.78 351.127L580.381 353.342C579.29 352.081 577.936 351.45 576.322 351.45C575.322 351.45 574.43 351.673 573.646 352.119C572.862 352.55 572.247 353.157 571.801 353.941C571.37 354.725 571.155 355.617 571.155 356.617C571.155 357.616 571.37 358.508 571.801 359.292C572.247 360.077 572.862 360.692 573.646 361.138C574.43 361.568 575.322 361.783 576.322 361.783C577.936 361.783 579.29 361.145 580.381 359.869L582.78 362.083C582.011 363.021 581.058 363.736 579.92 364.228C578.782 364.72 577.514 364.966 576.114 364.966ZM596.723 361.645V364.69H584.521V362.268L590.749 356.386C591.41 355.756 591.856 355.218 592.087 354.772C592.317 354.31 592.433 353.857 592.433 353.411C592.433 352.765 592.21 352.273 591.764 351.935C591.333 351.581 590.695 351.404 589.849 351.404C589.142 351.404 588.504 351.542 587.935 351.819C587.366 352.081 586.889 352.48 586.505 353.019L583.783 351.266C584.414 350.328 585.283 349.597 586.39 349.074C587.497 348.536 588.765 348.267 590.195 348.267C591.395 348.267 592.44 348.467 593.332 348.867C594.24 349.251 594.939 349.805 595.431 350.528C595.939 351.235 596.192 352.073 596.192 353.042C596.192 353.918 596.008 354.741 595.639 355.51C595.27 356.279 594.555 357.155 593.494 358.139L589.78 361.645H596.723Z" fill="#666666"/>
<path d="M569.107 120.674H523.959V244.832H569.107V120.674Z" fill="white"/>
<path d="M602.968 244.832H569.164L569.107 120.674H602.968V244.832Z" fill="#B0BECB"/>
<path d="M564.217 142.519H526.426V153.157H564.217V142.519Z" fill="#263238"/>
<path d="M529.599 143.857H527.482V152.001H529.599V143.857Z" fill="#455A64"/>
<path d="M532.089 145.567C532.089 145.94 531.789 146.24 531.416 146.24C531.042 146.24 530.743 145.94 530.743 145.567C530.743 145.193 531.042 144.894 531.416 144.894C531.789 144.894 532.089 145.193 532.089 145.567Z" fill="white"/>
<path d="M532.089 148.444C532.089 148.817 531.789 149.117 531.416 149.117C531.042 149.117 530.743 148.817 530.743 148.444C530.743 148.07 531.042 147.77 531.416 147.77C531.789 147.77 532.089 148.07 532.089 148.444Z" fill="white"/>
<path d="M536.858 144.894H534.778V151.147H536.858V144.894Z" fill="#455A64"/>
<path d="M539.863 144.894H537.783V151.147H539.863V144.894Z" fill="#455A64"/>
<path d="M542.865 144.894H540.786V151.147H542.865V144.894Z" fill="#455A64"/>
<path d="M545.873 144.894H543.793V151.147H545.873V144.894Z" fill="#455A64"/>
<path d="M548.875 144.894H546.795V151.147H548.875V144.894Z" fill="#455A64"/>
<path d="M551.876 144.894H549.797V151.147H551.876V144.894Z" fill="#455A64"/>
<path d="M554.883 144.894H552.803V151.147H554.883V144.894Z" fill="#455A64"/>
<path d="M557.885 144.894H555.806V151.147H557.885V144.894Z" fill="#455A64"/>
<path d="M560.893 144.894H558.813V151.147H560.893V144.894Z" fill="#455A64"/>
<path d="M563.894 144.894H561.814V151.147H563.894V144.894Z" fill="#455A64"/>
<path d="M564.217 157.8H526.426V168.439H564.217V157.8Z" fill="#263238"/>
<path d="M529.599 159.139H527.482V167.283H529.599V159.139Z" fill="#455A64"/>
<path d="M532.089 160.853C532.089 161.227 531.789 161.526 531.416 161.526C531.042 161.526 530.743 161.227 530.743 160.853C530.743 160.48 531.042 160.18 531.416 160.18C531.789 160.18 532.089 160.48 532.089 160.853Z" fill="white"/>
<path d="M532.089 163.731C532.089 164.105 531.789 164.405 531.416 164.405C531.042 164.405 530.743 164.105 530.743 163.731C530.743 163.358 531.042 163.058 531.416 163.058C531.789 163.058 532.089 163.358 532.089 163.731Z" fill="white"/>
<path d="M536.858 160.18H534.778V166.433H536.858V160.18Z" fill="#455A64"/>
<path d="M539.863 160.18H537.783V166.433H539.863V160.18Z" fill="#455A64"/>
<path d="M542.865 160.18H540.786V166.433H542.865V160.18Z" fill="#455A64"/>
<path d="M545.873 160.18H543.793V166.433H545.873V160.18Z" fill="#455A64"/>
<path d="M548.875 160.18H546.795V166.433H548.875V160.18Z" fill="#455A64"/>
<path d="M551.876 160.18H549.797V166.433H551.876V160.18Z" fill="#455A64"/>
<path d="M554.883 160.18H552.803V166.433H554.883V160.18Z" fill="#455A64"/>
<path d="M557.885 160.18H555.806V166.433H557.885V160.18Z" fill="#455A64"/>
<path d="M560.893 160.18H558.813V166.433H560.893V160.18Z" fill="#455A64"/>
<path d="M563.894 160.18H561.814V166.433H563.894V160.18Z" fill="#455A64"/>
<path d="M564.217 173.207H526.426V183.846H564.217V173.207Z" fill="#263238"/>
<path d="M529.599 174.545H527.482V182.689H529.599V174.545Z" fill="#455A64"/>
<path d="M532.089 176.26C532.089 176.633 531.789 176.933 531.416 176.933C531.042 176.933 530.743 176.633 530.743 176.26C530.743 175.886 531.042 175.587 531.416 175.587C531.789 175.587 532.089 175.886 532.089 176.26Z" fill="white"/>
<path d="M532.089 179.138C532.089 179.511 531.789 179.811 531.416 179.811C531.042 179.811 530.743 179.511 530.743 179.138C530.743 178.764 531.042 178.464 531.416 178.464C531.789 178.464 532.089 178.764 532.089 179.138Z" fill="white"/>
<path d="M536.858 175.587H534.778V181.84H536.858V175.587Z" fill="#455A64"/>
<path d="M539.863 175.587H537.783V181.84H539.863V175.587Z" fill="#455A64"/>
<path d="M542.865 175.587H540.786V181.84H542.865V175.587Z" fill="#455A64"/>
<path d="M545.873 175.587H543.793V181.84H545.873V175.587Z" fill="#455A64"/>
<path d="M548.875 175.587H546.795V181.84H548.875V175.587Z" fill="#455A64"/>
<path d="M551.876 175.587H549.797V181.84H551.876V175.587Z" fill="#455A64"/>
<path d="M554.883 175.587H552.803V181.84H554.883V175.587Z" fill="#455A64"/>
<path d="M557.885 175.587H555.806V181.84H557.885V175.587Z" fill="#455A64"/>
<path d="M560.893 175.587H558.813V181.84H560.893V175.587Z" fill="#455A64"/>
<path d="M563.894 175.587H561.814V181.84H563.894V175.587Z" fill="#455A64"/>
<path d="M564.217 189.851H526.426V200.489H564.217V189.851Z" fill="#263238"/>
<path d="M529.599 191.192H527.482V199.336H529.599V191.192Z" fill="#455A64"/>
<path d="M532.089 192.904C532.089 193.277 531.789 193.577 531.416 193.577C531.042 193.577 530.743 193.277 530.743 192.904C530.743 192.53 531.042 192.23 531.416 192.23C531.789 192.23 532.089 192.53 532.089 192.904Z" fill="white"/>
<path d="M532.089 195.781C532.089 196.154 531.789 196.454 531.416 196.454C531.042 196.454 530.743 196.154 530.743 195.781C530.743 195.407 531.042 195.107 531.416 195.107C531.789 195.107 532.089 195.407 532.089 195.781Z" fill="white"/>
<path d="M536.858 192.23H534.778V198.483H536.858V192.23Z" fill="#455A64"/>
<path d="M539.863 192.23H537.783V198.483H539.863V192.23Z" fill="#455A64"/>
<path d="M542.865 192.23H540.786V198.483H542.865V192.23Z" fill="#455A64"/>
<path d="M545.873 192.23H543.793V198.483H545.873V192.23Z" fill="#455A64"/>
<path d="M548.875 192.23H546.795V198.483H548.875V192.23Z" fill="#455A64"/>
<path d="M551.876 192.23H549.797V198.483H551.876V192.23Z" fill="#455A64"/>
<path d="M554.883 192.23H552.803V198.483H554.883V192.23Z" fill="#455A64"/>
<path d="M557.885 192.23H555.806V198.483H557.885V192.23Z" fill="#455A64"/>
<path d="M560.893 192.23H558.813V198.483H560.893V192.23Z" fill="#455A64"/>
<path d="M563.894 192.23H561.814V198.483H563.894V192.23Z" fill="#455A64"/>
<path d="M564.217 206.66H526.426V217.299H564.217V206.66Z" fill="#263238"/>
<path d="M529.599 207.998H527.482V216.141H529.599V207.998Z" fill="#455A64"/>
<path d="M532.089 209.714C532.089 210.087 531.789 210.387 531.416 210.387C531.042 210.387 530.743 210.087 530.743 209.714C530.743 209.34 531.042 209.04 531.416 209.04C531.789 209.04 532.089 209.34 532.089 209.714Z" fill="white"/>
<path d="M532.089 212.591C532.089 212.965 531.789 213.264 531.416 213.264C531.042 213.264 530.743 212.965 530.743 212.591C530.743 212.217 531.042 211.918 531.416 211.918C531.789 211.918 532.089 212.217 532.089 212.591Z" fill="white"/>
<path d="M536.858 209.04H534.778V215.293H536.858V209.04Z" fill="#455A64"/>
<path d="M539.863 209.04H537.783V215.293H539.863V209.04Z" fill="#455A64"/>
<path d="M542.865 209.04H540.786V215.293H542.865V209.04Z" fill="#455A64"/>
<path d="M545.873 209.04H543.793V215.293H545.873V209.04Z" fill="#455A64"/>
<path d="M548.875 209.04H546.795V215.293H548.875V209.04Z" fill="#455A64"/>
<path d="M551.876 209.04H549.797V215.293H551.876V209.04Z" fill="#455A64"/>
<path d="M554.883 209.04H552.803V215.293H554.883V209.04Z" fill="#455A64"/>
<path d="M557.885 209.04H555.806V215.293H557.885V209.04Z" fill="#455A64"/>
<path d="M560.893 209.04H558.813V215.293H560.893V209.04Z" fill="#455A64"/>
<path d="M563.894 209.04H561.814V215.293H563.894V209.04Z" fill="#455A64"/>
<path d="M564.217 223.403H526.426V234.042H564.217V223.403Z" fill="#263238"/>
<path d="M529.599 224.741H527.482V232.885H529.599V224.741Z" fill="#455A64"/>
<path d="M532.089 226.451C532.089 226.824 531.789 227.124 531.416 227.124C531.042 227.124 530.743 226.824 530.743 226.451C530.743 226.077 531.042 225.777 531.416 225.777C531.789 225.777 532.089 226.082 532.089 226.451Z" fill="white"/>
<path d="M532.089 229.329C532.089 229.702 531.789 230.002 531.416 230.002C531.042 230.002 530.743 229.702 530.743 229.329C530.743 228.955 531.042 228.655 531.416 228.655C531.789 228.655 532.089 228.955 532.089 229.329Z" fill="white"/>
<path d="M536.858 225.777H534.778V232.03H536.858V225.777Z" fill="#455A64"/>
<path d="M539.863 225.777H537.783V232.03H539.863V225.777Z" fill="#455A64"/>
<path d="M542.865 225.777H540.786V232.03H542.865V225.777Z" fill="#455A64"/>
<path d="M545.873 225.777H543.793V232.03H545.873V225.777Z" fill="#455A64"/>
<path d="M548.875 225.777H546.795V232.03H548.875V225.777Z" fill="#455A64"/>
<path d="M551.876 225.777H549.797V232.03H551.876V225.777Z" fill="#455A64"/>
<path d="M554.883 225.777H552.803V232.03H554.883V225.777Z" fill="#455A64"/>
<path d="M557.885 225.777H555.806V232.03H557.885V225.777Z" fill="#455A64"/>
<path d="M560.893 225.777H558.813V232.03H560.893V225.777Z" fill="#455A64"/>
<path d="M563.894 225.777H561.814V232.03H563.894V225.777Z" fill="#455A64"/>
<path d="M563.701 122.37H526.948V127.706H563.701V122.37Z" fill="#263238"/>
<path d="M555.04 125.04H535.031V127.706H555.04V125.04Z" fill="#455A64"/>
<path d="M610.15 252.904C621.841 252.904 631.318 242.902 631.318 230.564C631.318 218.226 621.841 208.224 610.15 208.224C598.459 208.224 588.982 218.226 588.982 230.564C588.982 242.902 598.459 252.904 610.15 252.904Z" fill="#86B026"/>
<path d="M607.941 252.905C619.632 252.905 629.109 242.903 629.109 230.565C629.109 218.227 619.632 208.225 607.941 208.225C596.25 208.225 586.773 218.227 586.773 230.565C586.773 242.903 596.25 252.905 607.941 252.905Z" fill="#A4D72E"/>
<path d="M617.263 236.055H615.141V223.289C615.141 220.224 612.644 217.727 609.58 217.727C606.515 217.727 604.018 220.224 604.018 223.289V236.055H601.896V223.289C601.896 219.05 605.341 215.605 609.58 215.605C613.818 215.605 617.263 219.05 617.263 223.289V236.055Z" fill="white"/>
<path d="M618.217 243.861H600.942C599.911 243.861 599.073 243.023 599.073 241.986V232.246C599.073 231.216 599.911 230.378 600.942 230.378H618.212C619.243 230.378 620.08 231.216 620.08 232.246V241.986C620.086 243.023 619.248 243.861 618.217 243.861Z" fill="white"/>
<path d="M609.579 237.12C608.609 237.12 607.821 236.332 607.821 235.362C607.821 234.392 608.609 233.604 609.579 233.604C610.55 233.604 611.338 234.392 611.338 235.362C611.338 236.332 610.55 237.12 609.579 237.12Z" fill="#455A64"/>
<path d="M610.059 236.057H609.1V239.667H610.059V236.057Z" fill="#455A64"/>
</g>
<defs>
<filter id="filter0_d" x="71.6126" y="68.0005" width="258.15" height="258.15" filterUnits="userSpaceOnUse" color-interpolation-filters="sRGB">
<feFlood flood-opacity="0" result="BackgroundImageFix"/>
<feColorMatrix in="SourceAlpha" type="matrix" values="0 0 0 0 0 0 0 0 0 0 0 0 0 0 0 0 0 0 127 0"/>
<feOffset dy="8.38741"/>
<feGaussianBlur stdDeviation="4.19371"/>
<feColorMatrix type="matrix" values="0 0 0 0 0 0 0 0 0 0 0 0 0 0 0 0 0 0 0.22 0"/>
<feBlend mode="normal" in2="BackgroundImageFix" result="effect1_dropShadow"/>
<feBlend mode="normal" in="SourceGraphic" in2="effect1_dropShadow" result="shape"/>
</filter>
<filter id="filter1_d" x="195.323" y="269.148" width="282.917" height="51.0198" filterUnits="userSpaceOnUse" color-interpolation-filters="sRGB">
<feFlood flood-opacity="0" result="BackgroundImageFix"/>
<feColorMatrix in="SourceAlpha" type="matrix" values="0 0 0 0 0 0 0 0 0 0 0 0 0 0 0 0 0 0 127 0"/>
<feOffset dx="8.04585"/>
<feGaussianBlur stdDeviation="5.3639"/>
<feColorMatrix type="matrix" values="0 0 0 0 0 0 0 0 0 0 0 0 0 0 0 0 0 0 0.25 0"/>
<feBlend mode="normal" in2="BackgroundImageFix" result="effect1_dropShadow"/>
<feBlend mode="normal" in="SourceGraphic" in2="effect1_dropShadow" result="shape"/>
</filter>
<linearGradient id="paint0_linear" x1="328.477" y1="109.938" x2="80" y2="279.783" gradientUnits="userSpaceOnUse">
<stop stop-color="#1A69A8"/>
<stop offset="1" stop-color="#20223E"/>
</linearGradient>
<linearGradient id="paint1_linear" x1="193.982" y1="304.013" x2="494.36" y2="309.377" gradientUnits="userSpaceOnUse">
<stop stop-color="#1F375D"/>
<stop offset="1" stop-color="#143FAD"/>
</linearGradient>
<linearGradient id="paint2_linear" x1="425.758" y1="284.487" x2="321.925" y2="284.487" gradientUnits="userSpaceOnUse">
<stop stop-color="white"/>
<stop offset="1" stop-color="white" stop-opacity="0"/>
</linearGradient>
<linearGradient id="paint3_linear" x1="425.758" y1="284.487" x2="321.925" y2="284.487" gradientUnits="userSpaceOnUse">
<stop stop-color="white"/>
<stop offset="1" stop-color="white" stop-opacity="0"/>
</linearGradient>
<linearGradient id="paint4_linear" x1="425.758" y1="284.487" x2="321.925" y2="284.487" gradientUnits="userSpaceOnUse">
<stop stop-color="white"/>
<stop offset="1" stop-color="white" stop-opacity="0"/>
</linearGradient>
<linearGradient id="paint5_linear" x1="425.758" y1="284.487" x2="321.925" y2="284.487" gradientUnits="userSpaceOnUse">
<stop stop-color="white"/>
<stop offset="1" stop-color="white" stop-opacity="0"/>
</linearGradient>
<linearGradient id="paint6_linear" x1="425.758" y1="284.487" x2="321.925" y2="284.487" gradientUnits="userSpaceOnUse">
<stop stop-color="white"/>
<stop offset="1" stop-color="white" stop-opacity="0"/>
</linearGradient>
<linearGradient id="paint7_linear" x1="565.303" y1="309.378" x2="566.232" y2="100.503" gradientUnits="userSpaceOnUse">
<stop stop-color="#6571F9"/>
<stop offset="1" stop-color="#1030B3"/>
</linearGradient>
<linearGradient id="paint8_linear" x1="562.411" y1="82.6784" x2="265.706" y2="82.6783" gradientUnits="userSpaceOnUse">
<stop stop-color="#1131B4"/>
<stop offset="1" stop-color="#1B629D"/>
</linearGradient>
<linearGradient id="paint9_linear" x1="340.168" y1="92.9546" x2="444.001" y2="92.9546" gradientUnits="userSpaceOnUse">
<stop stop-color="white"/>
<stop offset="1" stop-color="white" stop-opacity="0"/>
</linearGradient>
<linearGradient id="paint10_linear" x1="340.168" y1="92.9546" x2="444.001" y2="92.9546" gradientUnits="userSpaceOnUse">
<stop stop-color="white"/>
<stop offset="1" stop-color="white" stop-opacity="0"/>
</linearGradient>
<linearGradient id="paint11_linear" x1="340.168" y1="92.9546" x2="444.001" y2="92.9546" gradientUnits="userSpaceOnUse">
<stop stop-color="white"/>
<stop offset="1" stop-color="white" stop-opacity="0"/>
</linearGradient>
<linearGradient id="paint12_linear" x1="340.168" y1="92.9546" x2="444.001" y2="92.9546" gradientUnits="userSpaceOnUse">
<stop stop-color="white"/>
<stop offset="1" stop-color="white" stop-opacity="0"/>
</linearGradient>
<linearGradient id="paint13_linear" x1="340.168" y1="92.9546" x2="444.001" y2="92.9546" gradientUnits="userSpaceOnUse">
<stop stop-color="white"/>
<stop offset="1" stop-color="white" stop-opacity="0"/>
</linearGradient>
<linearGradient id="paint14_linear" x1="504.477" y1="97.3589" x2="504.477" y2="135.102" gradientUnits="userSpaceOnUse">
<stop stop-color="#5B5757"/>
<stop offset="1" stop-color="white" stop-opacity="0"/>
</linearGradient>
<linearGradient id="paint15_linear" x1="261.247" y1="279.781" x2="261.247" y2="242.038" gradientUnits="userSpaceOnUse">
<stop stop-color="#5B5757"/>
<stop offset="1" stop-color="white" stop-opacity="0"/>
</linearGradient>
<clipPath id="clip0">
<rect width="780" height="438" fill="white"/>
</clipPath>
</defs>
</svg>
